<svg version="1.1" viewBox="0.0 0.0 633.0997375328084 636.9212598425197" fill="none" stroke="none" stroke-linecap="square" stroke-miterlimit="10" xmlns:xlink="http://www.w3.org/1999/xlink" xmlns="http://www.w3.org/2000/svg"><clipPath id="p.0"><path d="m0 0l633.09973 0l0 636.92126l-633.09973 0l0 -636.92126z" clip-rule="nonzero"/></clipPath><g clip-path="url(#p.0)"><path fill="#000000" fill-opacity="0.0" d="m0 0l633.09973 0l0 636.92126l-633.09973 0z" fill-rule="evenodd"/><g filter="url(#shadowFilter-p.1)"><use xlink:href="#p.1" transform="matrix(1.0 0.0 0.0 1.0 8.632077514968833 8.335900334235564)"/></g><defs><filter id="shadowFilter-p.1" filterUnits="userSpaceOnUse"><feGaussianBlur in="SourceAlpha" stdDeviation="0.0" result="blur"/><feComponentTransfer in="blur" color-interpolation-filters="sRGB"><feFuncR type="linear" slope="0" intercept="0.0"/><feFuncG type="linear" slope="0" intercept="0.0"/><feFuncB type="linear" slope="0" intercept="0.0"/><feFuncA type="linear" slope="0.5" intercept="0"/></feComponentTransfer></filter></defs><g id="p.1"><path fill="#000000" fill-opacity="0.0" d="m49.633858 138.6076l537.2598 0l0 249.38583l-537.2598 0z" fill-rule="evenodd"/><path fill="#ffffff" d="m73.04011 378.0076l0 -3.84375l19.1875 -9.59375l0 -131.04688l-18.953125 -10.078125l0 -3.84375l35.28125 0l91.67188 115.203125l0 -102.234375l-24.0 -9.125l0 -3.84375l59.765625 0l0 3.84375l-18.953125 9.359375l0 146.40625l-8.890625 0l-99.10938 -125.046875l0 110.640625l24.000008 9.359375l0 3.84375l-60.000008 0z" fill-rule="nonzero"/><path fill="#ffffff" d="m275.9876 378.0076l0 -2.140625l13.34375 -5.328125l0 -73.1875l-21.734375 0l-9.0625 19.59375l-2.140625 0l0 -26.9375l77.859375 0l0 26.9375l-2.125 0l-9.078125 -19.59375l-21.71875 0l0 73.1875l13.328125 5.328125l0 2.140625l-38.671875 0z" fill-rule="nonzero"/><path fill="#ffffff" d="m406.0227 379.21072l-44.171875 -147.125l-18.0 -8.640625l0 -3.84375l60.96875 0l0 3.84375l-20.40625 8.875l30.0 103.921875l1.203125 0l41.515625 -117.828125l8.890625 0l42.46875 117.828125l1.453125 0l29.515625 -103.671875l-20.40625 -9.125l0 -3.84375l53.046875 0l0 3.84375l-16.078125 8.875l-44.640625 146.89062l-8.40625 0l-43.671875 -117.609375l-1.203125 0l-43.6875 117.609375l-8.390625 0z" fill-rule="nonzero"/></g><g filter="url(#shadowFilter-p.2)"><use xlink:href="#p.2" transform="matrix(1.0 0.0 0.0 1.0 6.474058296423885 6.251925571071194)"/></g><defs><filter id="shadowFilter-p.2" filterUnits="userSpaceOnUse"><feGaussianBlur in="SourceAlpha" stdDeviation="0.0" result="blur"/><feComponentTransfer in="blur" color-interpolation-filters="sRGB"><feFuncR type="linear" slope="0" intercept="0.0"/><feFuncG type="linear" slope="0" intercept="0.0"/><feFuncB type="linear" slope="0" intercept="0.0"/><feFuncA type="linear" slope="0.48" intercept="0"/></feComponentTransfer></filter></defs><g id="p.2"><path fill="#000000" fill-opacity="0.0" d="m92.12205 401.2953l452.28348 0l0 45.07086l-452.28348 0z" fill-rule="evenodd"/><path fill="#ffffff" d="m103.13767 456.37527l0 -0.765625l4.078125 -1.96875l0 -26.15625l-4.078125 -2.015625l0 -0.78125l9.125 0l18.624992 21.03125l0 -18.328125l-5.4843674 -1.921875l0 -0.78125l12.874992 0l0 0.78125l-4.03125 1.96875l0 29.171875l-2.984375 0l-20.687492 -23.125l0 20.15625l5.46875 1.96875l0 0.765625l-12.90625 0zm47.621193 0.484375q-2.890625 0 -4.734375 -1.484375q-1.84375 -1.5 -1.84375 -4.421875l0 -14.15625l-3.171875 -1.546875l0 -0.765625l9.9375 0l0 14.5q0 1.671875 0.953125 2.5625q0.96875 0.890625 2.453125 0.890625q0.90625 0 1.90625 -0.328125q1.015625 -0.34375 1.75 -0.921875l0 -14.390625l-2.890625 -1.546875l0 -0.765625l9.65625 0l0 19.640625l3.015625 1.484375l0 0.765625l-9.78125 0l0 -3.078125l-0.203125 0q-1.671875 1.6875 -3.265625 2.625q-1.578125 0.9375 -3.78125 0.9375zm19.335678 -0.484375l0 -0.765625l3.21875 -1.53125l0 -14.59375l-3.078125 -1.96875l0 -0.578125l8.75 -2.9375l0.5625 0l0.4375 3.5625l0.234375 0q1.6875 -1.6875 3.265625 -2.625q1.59375 -0.9375 3.796875 -0.9375q2.359375 0 4.03125 1.015625q1.6875 1.0 2.203125 3.015625l0.203125 0q1.8125 -1.90625 3.46875 -2.96875q1.65625 -1.0625 4.015625 -1.0625q2.828125 0 4.65625 1.5q1.828125 1.484375 1.828125 4.40625l0 14.171875l3.15625 1.53125l0 0.765625l-12.375 0l0 -0.765625l2.4375 -1.53125l0 -12.203125q0 -1.671875 -0.9375 -2.5625q-0.921875 -0.890625 -2.421875 -0.890625q-1.046875 0 -2.0625 0.390625q-1.0 0.375 -1.71875 1.09375l0 0l0 14.171875l2.390625 1.53125l0 0.765625l-11.515625 0l0 -0.765625l2.359375 -1.53125l0 -12.203125q0 -1.671875 -0.9375 -2.5625q-0.9375 -0.890625 -2.421875 -0.890625q-0.875 0 -1.890625 0.34375q-1.0 0.328125 -1.71875 0.90625l0 14.40625l2.3125 1.53125l0 0.765625l-12.25 0zm45.596222 0.1875l0 -30.71875l-3.0625 -2.25l0 -0.578125l9.21875 -2.640625l0.578125 0l0 16.515625l0.28125 0q1.734375 -1.546875 3.359375 -2.21875q1.625 -0.671875 3.546875 -0.671875q2.125 0 3.96875 1.28125q1.84375 1.265625 2.9375 3.625q1.109375 2.34375 1.109375 5.609375q0 3.84375 -1.5625 6.609375q-1.546875 2.75 -4.09375 4.25q-2.546875 1.484375 -5.625 1.484375q-2.0625 0 -3.796875 -0.4375q-1.71875 -0.4375 -3.203125 -1.390625l-3.078125 1.53125l-0.578125 0zm9.9375 -18.625q-0.859375 0 -1.609375 0.25q-0.734375 0.234375 -1.59375 0.71875l0 13.875q1.390625 1.578125 3.59375 1.578125q1.203125 0 2.328125 -0.734375q1.125 -0.75 1.84375 -2.625q0.71875 -1.875 0.71875 -5.28125q0 -3.984375 -1.640625 -5.875q-1.625 -1.90625 -3.640625 -1.90625zm26.842422 18.921875q-4.953125 0 -7.8125 -2.859375q-2.84375 -2.859375 -2.84375 -7.5625q0 -3.640625 1.578125 -6.453125q1.578125 -2.8125 4.265625 -4.390625q2.703125 -1.59375 6.015625 -1.59375q3.8750153 0 6.0312653 2.59375q2.171875 2.59375 2.21875 7.34375l-0.1875 0.25l-13.45314 0l0 0.234375q0 2.015625 0.765625 3.671875q0.78125 1.65625 2.4375 2.625q1.65625 0.953125 4.296875 0.953125q1.3906403 0 2.8906403 -0.328125q1.515625 -0.34375 3.15625 -1.15625l0.140625 0l0 0.765625q-1.203125 2.546875 -3.671875 4.234375q-2.4687653 1.671875 -5.8281403 1.671875zm0.09375 -20.6875q-1.6875 0 -2.765625 1.53125q-1.078125 1.53125 -1.359375 4.3125l8.10939 0q-0.34375 -3.296875 -1.3750153 -4.5625q-1.03125 -1.28125 -2.609375 -1.28125zm12.80806 20.203125l0 -0.765625l3.171875 -1.53125l0 -14.3125l-3.015625 -2.25l0 -0.578125l8.734375 -2.9375l0.578125 0l0.421875 4.328125l0.25 0q1.140625 -1.828125 2.046875 -2.765625q0.921875 -0.9375 1.734375 -1.25q0.8125 -0.3125 1.78125 -0.3125q0.375 0 0.875 0.125q0.515625 0.125 0.90625 0.265625q1.4375 0.4375 1.4375 1.34375q0 0.4375 -0.203125 0.8125l-1.140625 3.125l-0.34375 0l-1.25 -0.4375q-1.25 -0.421875 -2.53125 -0.421875q-2.015625 0 -3.515625 1.859375l0 13.40625l3.890625 1.53125l0 0.765625l-13.828125 0zm28.85315 0.484375q-2.34375 0 -4.109375 -0.46875q-1.75 -0.453125 -3.421875 -1.265625l0 -5.5625l0.71875 0l1.671875 2.5q1.78125 2.6875 4.953125 2.6875q3.734375 0 3.734375 -2.75q0 -1.0 -0.53125 -1.625q-0.515625 -0.625 -1.703125 -1.203125q-1.171875 -0.578125 -3.234375 -1.4375q-2.6875 -1.109375 -3.984375 -2.59375q-1.296875 -1.484375 -1.296875 -3.6875q0 -2.0625 1.078125 -3.75q1.078125 -1.6875 2.953125 -2.6875q1.875 -1.015625 4.234375 -1.015625q1.625 0 3.1875 0.34375q1.5625 0.328125 3.046875 1.109375l0 5.703125l-0.71875 0l-1.484375 -2.25q-0.921875 -1.390625 -1.890625 -2.0625q-0.953125 -0.671875 -2.296875 -0.671875q-1.4375 0 -2.328125 0.71875q-0.875 0.71875 -0.875 2.015625q0 0.859375 0.40625 1.46875q0.40625 0.59375 1.453125 1.171875q1.0625 0.578125 3.03125 1.34375q1.34375 0.53125 2.65625 1.234375q1.328125 0.6875 2.21875 1.953125q0.890625 1.265625 0.890625 3.53125q0 2.25 -1.203125 3.890625q-1.203125 1.625 -3.109375 2.5q-1.890625 0.859375 -4.046875 0.859375zm33.5542 0q-2.921875 0 -4.796875 -1.25q-1.875 -1.25 -1.875 -3.5l0 -15.46875l-3.453125 0l0 -0.671875l4.40625 -1.484375l4.859375 -5.28125l0.90625 0l0 5.28125l6.671875 0l0 2.15625l-6.671875 0l0 14.265625q0 1.25 1.046875 1.828125q1.0625 0.5625 2.5 0.5625q0.921875 0 1.609375 -0.109375q0.703125 -0.125 1.375 -0.265625l0.140625 0.09375l0 0.8125q-0.8125 1.15625 -2.640625 2.09375q-1.828125 0.9375 -4.078125 0.9375zm20.786896 0q-3.4062195 0 -5.9999695 -1.5625q-2.59375 -1.5625 -4.03125 -4.15625q-1.4375 -2.59375 -1.4375 -5.703125q0 -3.171875 1.4375 -5.765625q1.4375 -2.59375 4.03125 -4.125q2.59375 -1.546875 5.9999695 -1.546875q3.40625 0 5.96875 1.546875q2.578125 1.53125 4.015625 4.125q1.4375 2.59375 1.4375 5.765625q0 3.109375 -1.4375 5.703125q-1.4375 2.59375 -4.015625 4.15625q-2.5625 1.5625 -5.96875 1.5625zm0.53125 -2.359375q1.390625 0 2.265625 -1.125q0.890625 -1.125 1.296875 -3.0q0.40625 -1.875 0.40625 -3.984375q0 -2.59375 -0.5 -4.890625q-0.5 -2.3125 -1.578125 -3.75q-1.078125 -1.4375 -2.859375 -1.4375q-1.4374695 0 -2.3593445 1.125q-0.90625 1.125 -1.34375 2.984375q-0.421875 1.84375 -0.421875 4.0q0 2.640625 0.515625 4.921875q0.53125 2.28125 1.65625 3.71875q1.140625 1.4375 2.9218445 1.4375zm38.05298 2.109375l-9.21875 -29.21875l-3.6875 -1.921875l0 -0.78125l15.125 0l0 0.78125l-4.046875 1.8125l5.53125 18.484375l0.234375 0l8.359375 -21.3125l2.828125 0l8.296875 21.3125l0.25 0l5.5625 -18.4375l-4.125 -1.859375l0 -0.78125l10.84375 0l0 0.78125l-3.21875 1.71875l-9.40625 29.421875l-2.78125 0l-8.59375 -21.3125l-0.328125 0l-8.84375 21.3125l-2.78125 0zm48.151978 0.25q-3.40625 0 -6.0 -1.5625q-2.59375 -1.5625 -4.03125 -4.15625q-1.4375 -2.59375 -1.4375 -5.703125q0 -3.171875 1.4375 -5.765625q1.4375 -2.59375 4.03125 -4.125q2.59375 -1.546875 6.0 -1.546875q3.40625 0 5.96875 1.546875q2.578125 1.53125 4.015625 4.125q1.4375 2.59375 1.4375 5.765625q0 3.109375 -1.4375 5.703125q-1.4375 2.59375 -4.015625 4.15625q-2.5625 1.5625 -5.96875 1.5625zm0.53125 -2.359375q1.390625 0 2.265625 -1.125q0.890625 -1.125 1.296875 -3.0q0.40625 -1.875 0.40625 -3.984375q0 -2.59375 -0.5 -4.890625q-0.5 -2.3125 -1.578125 -3.75q-1.078125 -1.4375 -2.859375 -1.4375q-1.4375 0 -2.359375 1.125q-0.90625 1.125 -1.34375 2.984375q-0.421875 1.84375 -0.421875 4.0q0 2.640625 0.515625 4.921875q0.53125 2.28125 1.65625 3.71875q1.140625 1.4375 2.921875 1.4375zm14.1466675 1.875l0 -0.765625l3.171875 -1.53125l0 -14.3125l-3.015625 -2.25l0 -0.578125l8.734375 -2.9375l0.578125 0l0.421875 4.328125l0.25 0q1.140625 -1.828125 2.046875 -2.765625q0.921875 -0.9375 1.734375 -1.25q0.8125 -0.3125 1.78125 -0.3125q0.375 0 0.875 0.125q0.515625 0.125 0.90625 0.265625q1.4375 0.4375 1.4375 1.34375q0 0.4375 -0.203125 0.8125l-1.140625 3.125l-0.34375 0l-1.25 -0.4375q-1.25 -0.421875 -2.53125 -0.421875q-2.015625 0 -3.515625 1.859375l0 13.40625l3.890625 1.53125l0 0.765625l-13.828125 0zm28.41565 0.484375q-2.109375 0 -3.953125 -1.203125q-1.84375 -1.203125 -2.984375 -3.40625q-1.125 -2.21875 -1.125 -5.234375q0 -3.984375 1.4375 -6.90625q1.453125 -2.9375 3.984375 -4.515625q2.546875 -1.59375 5.859375 -1.59375q2.3125 0 3.984375 0.4375l0 -8.59375l-3.3125 -2.296875l0 -0.53125l9.453125 -2.640625l0.578125 0l0 33.84375l3.359375 1.390625l0 0.765625l-9.59375 0l-0.390625 -2.40625l-0.328125 0q-1.78125 1.546875 -3.421875 2.21875q-1.625 0.671875 -3.546875 0.671875zm-1.296875 -11.328125q0 3.828125 1.625 5.609375q1.640625 1.78125 3.65625 1.78125q0.875 0 1.609375 -0.234375q0.75 -0.25 1.609375 -0.734375l0 -13.921875q-0.625 -0.71875 -1.4375 -1.09375q-0.8125 -0.390625 -1.828125 -0.390625q-1.390625 0 -2.59375 0.78125q-1.1875 0.765625 -1.921875 2.703125q-0.71875 1.9375 -0.71875 5.5zm29.718445 11.328125q-2.34375 0 -4.109375 -0.46875q-1.75 -0.453125 -3.421875 -1.265625l0 -5.5625l0.71875 0l1.671875 2.5q1.78125 2.6875 4.953125 2.6875q3.734375 0 3.734375 -2.75q0 -1.0 -0.53125 -1.625q-0.515625 -0.625 -1.703125 -1.203125q-1.171875 -0.578125 -3.234375 -1.4375q-2.6875 -1.109375 -3.984375 -2.59375q-1.296875 -1.484375 -1.296875 -3.6875q0 -2.0625 1.078125 -3.75q1.078125 -1.6875 2.953125 -2.6875q1.875 -1.015625 4.234375 -1.015625q1.625 0 3.1875 0.34375q1.5625305 0.328125 3.0469055 1.109375l0 5.703125l-0.71875 0l-1.4844055 -2.25q-0.921875 -1.390625 -1.890625 -2.0625q-0.953125 -0.671875 -2.296875 -0.671875q-1.4375 0 -2.328125 0.71875q-0.875 0.71875 -0.875 2.015625q0 0.859375 0.40625 1.46875q0.40625 0.59375 1.453125 1.171875q1.0625 0.578125 3.03125 1.34375q1.34375 0.53125 2.6562805 1.234375q1.328125 0.6875 2.21875 1.953125q0.890625 1.265625 0.890625 3.53125q0 2.25 -1.203125 3.890625q-1.203125 1.625 -3.1094055 2.5q-1.890625 0.859375 -4.046875 0.859375z" fill-rule="nonzero"/></g><path fill="#ffffff" d="m13.838583 318.46063l0 0c0 -164.33733 136.2958 -297.55905 304.4252 -297.55905l0 0c80.738556 0 158.17032 31.349882 215.26111 87.15303c57.09082 55.803154 89.16406 131.48846 89.16406 210.40604l0 0c0 164.33731 -136.2958 297.55908 -304.42517 297.55908l0 0c-168.12941 0 -304.4252 -133.22177 -304.4252 -297.55908zm19.763872 0l0 0c0 153.42203 127.44721 277.79517 284.66135 277.79517c157.21408 0 284.66132 -124.37314 284.66132 -277.79517l0 0c0 -153.42204 -127.447235 -277.7952 -284.66132 -277.7952l0 0c-157.21413 0 -284.66135 124.37314 -284.66135 277.7952z" fill-rule="evenodd"/><path stroke="#000000" stroke-width="1.0" stroke-linejoin="round" stroke-linecap="butt" d="m13.838583 318.46063l0 0c0 -164.33733 136.2958 -297.55905 304.4252 -297.55905l0 0c80.738556 0 158.17032 31.349882 215.26111 87.15303c57.09082 55.803154 89.16406 131.48846 89.16406 210.40604l0 0c0 164.33731 -136.2958 297.55908 -304.42517 297.55908l0 0c-168.12941 0 -304.4252 -133.22177 -304.4252 -297.55908zm19.763872 0l0 0c0 153.42203 127.44721 277.79517 284.66135 277.79517c157.21408 0 284.66132 -124.37314 284.66132 -277.79517l0 0c0 -153.42204 -127.447235 -277.7952 -284.66132 -277.7952l0 0c-157.21413 0 -284.66135 124.37314 -284.66135 277.7952z" fill-rule="evenodd"/></g></svg>